<svg xmlns="http://www.w3.org/2000/svg" width="400" height="400"><g fill-rule="evenodd"><path fill="#22ce86" d="M140 111.258c-10.917.826-16.356 5.619-20.962 18.472-2.211 6.169-5.311 15.127-6.185 17.87-.455 1.43-1.634 4.85-2.619 7.6-2.392 6.68-2.837 8.006-4.041 12.04-2.179 7.304-2.198 7.292 11.27 7.041 13.181-.245 13.115-.209 15.515-8.518.768-2.66 1.776-5.72 2.239-6.8.464-1.08 1.919-5.203 3.232-9.163s2.637-7.74 2.939-8.4.919-2.64 1.372-4.4c.843-3.279 2.261-7.287 2.83-8 1.96-2.457 5.785-16.213 4.778-17.182-.689-.662-5.552-.925-10.368-.56m80.025-.159c-2.736.07-5.166.283-5.4.475-.234.191-1.213.558-2.175.816-7.423 1.985-12.487 8.107-16.013 19.358-.68 2.171-1.237 4.183-1.237 4.47s-.54 1.87-1.2 3.518c-.66 1.649-1.2 3.383-1.2 3.854s-1.06 3.411-2.355 6.533c-1.296 3.122-2.626 6.757-2.955 8.077s-1.137 3.84-1.794 5.6c-3.078 8.248-3.162 8.617-2.151 9.436 1.167.945 6.715 1.318 15.663 1.055 9.576-.282 10.006-.564 11.996-7.891.507-1.87 2.223-6.91 3.812-11.2s3.021-8.61 3.182-9.6.523-2.25.804-2.8.981-2.305 1.555-3.9a897 897 0 0 1 2.039-5.6 80 80 0 0 0 1.758-5.5c.419-1.54 1.519-4.367 2.445-6.283 3.12-6.452 2.703-10.873-.999-10.602-.44.032-3.039.115-5.775.184m29.632.874-6.144.25-1.13 1.266c-.711.795-1.592 2.722-2.374 5.188-1.295 4.084-2.373 7.064-3.665 10.123-1.489 3.525-1.961 6.09-1.308 7.1.683 1.056-1.779.955 24.364.997l18.8.03 3.344-1.071c6.139-1.966 9.716-5.922 12.437-13.758 2.509-7.224 2.71-8.727 1.269-9.472-1.227-.635-34.407-1.11-45.593-.653M174.6 125.159c-10.382 1.229-16.905 6.217-19.839 15.17-.265.809-.707 1.831-.981 2.271s-.797 1.88-1.162 3.2c-1.075 3.88-3.069 9.874-3.859 11.6-1.154 2.518-3.505 9.297-3.79 10.924-.141.812-.592 2.061-1 2.777-1.644 2.878-1.04 3.042 11.831 3.215 14.446.194 13.911.392 15.232-5.649.345-1.577 1.236-4.127 1.981-5.667.744-1.54 1.831-4.42 2.416-6.4a109 109 0 0 1 2.417-7.091c.745-1.921 1.355-3.811 1.356-4.2s.288-1.249.637-1.909c.571-1.08 2.843-7.229 5.014-13.57.985-2.874.657-3.988-1.286-4.377-2.255-.451-6.476-.589-8.967-.294m57.2 24.442c-2.687.286-2.873.456-3.414 3.106-.257 1.261-1.068 3.913-1.803 5.893s-1.895 5.4-2.579 7.6-1.4 4.497-1.591 5.104c-.388 1.237.199 2.092 1.875 2.729.549.209 12.269.364 27.238.359 27.965-.009 31.929-.227 33.792-1.86.485-.425 1.679-1.303 2.654-1.952 1.958-1.305 4.669-4.732 5.686-7.19.362-.874 1.127-2.693 1.7-4.04.573-1.348 1.042-2.838 1.042-3.313 0-.474.27-1.509.6-2.299.818-1.957.755-3.227-.184-3.73-.823-.44-61.152-.818-65.016-.407M16.1 217.996c-.495.208-.9.609-.9.891 0 1.059 1.154 5.976 1.51 6.435.203.263.608 1.648.9 3.078.291 1.43.771 3.187 1.066 3.904s.796 2.427 1.112 3.8c.74 3.221 1.698 6.589 2.024 7.116.246.398.88 2.566 3.152 10.78 1.319 4.77 1.774 5.2 5.511 5.2 3.969 0 4.83-.903 5.524-5.792.278-1.958.735-4.11 1.015-4.784s.635-2.124.788-3.224.529-2.767.835-3.705c.307-.938.769-2.986 1.027-4.551l.47-2.846.917 1.804c.504.992 1.103 2.86 1.331 4.151s.582 3.067.786 3.947.744 3.31 1.2 5.4c1.988 9.109 2.04 9.196 5.714 9.491 3.477.279 4.929-.456 5.512-2.794.234-.933.587-1.988.786-2.344.198-.356.557-1.436.797-2.4s.7-2.653 1.022-3.753 1.05-3.8 1.617-6c.568-2.2 1.471-5.485 2.008-7.3s1.436-4.875 1.998-6.8a603 603 0 0 1 1.645-5.542c.819-2.682.485-3.632-1.46-4.156-1.761-.474-5.89-.111-6.308.554-.353.564-1.944 6.552-2.508 9.444-.236 1.21-.677 2.845-.98 3.634-.304.789-.756 2.561-1.006 3.938s-.702 3.071-1.005 3.766-.662 1.783-.798 2.42c-.515 2.417-2.251-3.666-5.239-18.358-.947-4.656-1.394-5.258-4.123-5.55-4.655-.498-5.916.241-6.449 3.781-.213 1.413-.739 4.009-1.169 5.769-1.828 7.487-2.406 10.119-2.659 12.109-.474 3.723-1.937 2.44-3.09-2.709-.37-1.65-1.042-4.35-1.495-6-1.542-5.622-2.369-8.999-2.373-9.694-.016-2.344-5.695-4.373-8.705-3.11m109.194.014c-1.58.643-1.669 1.751-1.686 21.171l-.017 18.794 1.185.612c1.715.888 5.3.803 6.48-.152l.944-.765-.004-19.225c-.004-16.503-.089-19.305-.6-19.789-.74-.699-5.077-1.144-6.302-.646m30.027.057c-.483.24-1.051.931-1.262 1.535-.438 1.258-.343 37.03.102 38.044.646 1.473 4.927 2.104 7.039 1.037l1-.505.2-9.189.2-9.189 1.362-1.694c2.384-2.964 6.017-2.916 7.538.1.848 1.683.9 2.272.906 10.29.007 10.733-.082 10.504 4.096 10.504 4.525 0 4.272.687 4.319-11.716.043-11.368.079-11.136-2.376-15.127-2.209-3.592-9.111-4.801-13.135-2.301l-2.022 1.256-.456-1.002c-.275-.603-.436-2.994-.405-6.003.039-3.73-.085-5.129-.488-5.51-.736-.698-5.509-1.08-6.618-.53m57.267.346c-1.045 1.155-1.269 38.832-.239 40.087.651.792 18.827 1.055 21.651.313 10.989-2.888 14.238-12.916 6.611-20.402l-1.735-1.703 1.335-1.171c3.765-3.306 4.117-9.604.753-13.45-3.207-3.665-5.159-4.156-17.379-4.363-10.066-.172-10.227-.161-10.997.689m87.541-.535c-1.667.325-1.917 1.151-1.979 6.532-.074 6.499-.157 6.657-2.752 5.285-6.976-3.689-15.501 1.171-17.168 9.788-.387 2.001-.603 2.506-.821 1.917-3.184-8.62-8.685-13.013-16.271-12.995-13.62.033-20.143 16.885-10.518 27.175 2.986 3.193 4.724 3.82 10.58 3.82 8.411 0 13.096-3.577 16.24-12.4.214-.601.364-.306.602 1.189 1.44 9.034 10.551 14.421 17.501 10.348 1.779-1.042 1.836-1.049 3.035-.361 1.615.928 4.944 1.244 6.764.643l1.458-.481.056-7.469c.031-4.108.113-12.599.182-18.869.164-14.757-.167-15.434-6.909-14.122m11.471.236c-1.314.665-1.711 5.458-.557 6.733.971 1.074 5.667 1.078 6.99.007 1.221-.989 1.261-4.4.071-5.998-.916-1.228-4.692-1.659-6.504-.742m-288.932 1.157c.466.372 1.983 4.87 2.54 7.529.161.77.929 3.83 1.707 6.8s1.541 6.21 1.696 7.2c.359 2.294.763 3.048 1.776 3.312 1.216.318 1.328-.03 3.38-10.512.366-1.87.861-3.94 1.099-4.6.237-.66.725-2.979 1.083-5.153.774-4.699 1.731-5.647 5.381-5.327 2.948.257 3.139.652 5.261 10.88 2.33 11.227 3.948 16.566 4.646 15.321.642-1.149 2.283-6.421 2.576-8.28.153-.968.52-2.34.816-3.05.297-.709.736-2.521.976-4.025.241-1.504.584-2.922.764-3.151s.571-1.671.87-3.207c.66-3.383 1.25-4.035 3.996-4.413 2.839-.39 4.307.953 3.405 3.115-.543 1.3-1.542 4.964-2.261 8.29-.214.99-.729 2.7-1.145 3.8-.764 2.019-1.765 5.427-2.998 10.2-1.785 6.913-2.164 8.282-2.584 9.326-.248.619-.452 1.557-.452 2.084 0 4.755-7.688 3.871-8.781-1.01-.582-2.598-2.051-9.318-3.322-15.2-1.638-7.578-3.017-8.634-4.075-3.12-.7 3.65-1.666 7.745-2.623 11.12-.405 1.43-.949 4.027-1.209 5.771-.668 4.493-1.437 5.429-4.465 5.429-3.706 0-3.429.582-9.122-19.2-2.641-9.179-3.627-12.512-4.083-13.8-.706-1.998-1.269-5.635-.986-6.371.289-.754 5.126-.563 6.134.242m108.111.204c1.014 1.252.927 36.293-.093 37.85-.915 1.396-4.767 1.619-5.464.316-.779-1.455-.602-37.107.19-38.316.84-1.282 4.285-1.186 5.367.15m29.347-.615c1.366.719 1.461 1.073 1.477 5.54.027 7.172.691 8.708 3.082 7.129 3.124-2.064 3.726-2.329 5.286-2.329 3.778 0 7.402 2.321 9.186 5.884.791 1.581.843 2.31.843 11.871 0 11.854.13 11.445-3.638 11.445-3.17 0-3.186-.053-3.145-10.69l.033-8.596-1.042-1.573c-1.261-1.907-2.599-2.484-5.097-2.198-4.65.533-5.222 1.889-5.426 12.857-.19 10.184-.23 10.296-3.597 10.119-3.409-.179-3.258.753-3.263-20.103-.004-20.355-.081-19.816 2.811-19.816.889 0 2.01.207 2.49.46m72.241-.012c3.741.637 6.542 2.062 8.323 4.236 2.841 3.467 2.195 9.562-1.238 11.684-2.168 1.34-2.109 1.823.551 4.499 2.043 2.056 2.526 2.832 3.256 5.237l.858 2.823-.905 2.809c-1.196 3.714-3.537 6.041-7.251 7.209-3.014.948-22.089 1.487-22.927.649-.586-.586-.739-36.547-.162-38.074.349-.923.679-1.101 2.268-1.228 4.399-.35 14.806-.256 17.227.156m72.66.474 1.071.921-.071 18.103c-.039 9.956-.183 18.406-.32 18.778-.626 1.7-4.881 1.897-5.944.276-.987-1.507-3.784-1.102-5.341.774-1.364 1.643-10.671.123-11.559-1.889-.077-.173-.588-.848-1.137-1.5-5.376-6.389-3.349-20.92 3.33-23.864 4.834-2.13 4.94-2.146 7.873-1.159 1.47.495 3.102 1.304 3.628 1.798l.957.898.643-.918c.508-.726.643-1.977.643-5.975 0-4.51.09-5.171.829-6.111 1.119-1.423 3.821-1.489 5.398-.132m11.937-.398c.889.65 1.31 3.817.667 5.017-.475.888-3.319 1.2-5.531.607-1.208-.324-1.373-5.033-.2-5.716 1.003-.584 4.219-.525 5.064.092m-177.982 2.058c-.87.869-.982 1.328-.982 4.01v3.028l-1.815 1.09c-2.726 1.637-3.075 4.545-.69 5.737 2.608 1.303 2.505.902 2.505 9.787 0 12.188.876 13.721 8.224 14.404 3.976.37 5.237-.301 5.443-2.896.18-2.262-.404-3.112-2.667-3.876-2.385-.806-2.587-1.515-2.594-9.086-.006-6.987.138-7.58 1.843-7.58 4.045 0 4.346-5.677.351-6.626-2.016-.478-2.2-.831-2.2-4.229 0-3.132-.01-3.163-1.3-3.949-1.92-1.171-4.85-1.082-6.118.186m5.839.843c.285.344.585 1.918.667 3.498.167 3.247.815 4.558 2.417 4.894 3.252.684 3.287 4.183.042 4.183-2.207 0-2.503 1.157-2.396 9.34.1 7.563.366 8.818 1.972 9.311 3.328 1.021 3.862 1.857 2.667 4.169-.845 1.634-4.254 1.693-7.748.135-3.216-1.436-3.379-2.055-3.288-12.506.08-9.104-.032-9.57-2.567-10.629-2.333-.974-2.093-3.054.494-4.295 1.54-.738 2.106-2.116 2.113-5.145.003-1.497.212-2.826.486-3.1.721-.721 4.511-.614 5.141.145M224 224.761c-4.517.317-4.4.195-4.4 4.618 0 5.515.115 5.612 6.449 5.475 6.54-.142 7.976-.719 8.928-3.585 1.046-3.149-1.261-6.462-4.508-6.474-.808-.003-1.829-.066-2.269-.139s-2.33-.026-4.2.105m8.886 1.94c2.304 2.305 1.446 6.036-1.582 6.877-2.12.589-9.42.546-10.024-.058-.651-.651-.636-6.367.02-7.21 1.357-1.745 9.735-1.462 11.586.391m-158.269 1.968c-.431.122-1.151.45-1.6.729s-1.311.622-1.916.762c-.604.14-2.076 1.248-3.271 2.463-6.517 6.621-5.469 21.141 1.77 24.534.77.361 1.932 1.013 2.582 1.45 2.252 1.512 10.648 1.164 13.878-.575 2.628-1.416 4.942-3.946 5.552-6.074.845-2.947-5.4-3.493-8.841-.773-4.188 3.311-8.871 1.861-10.507-3.252-.334-1.043.426-1.133 9.55-1.133 11.53 0 11.765-.138 10.25-6.031-2.37-9.217-9.689-14.292-17.447-12.1m29.183-.02c-.44.113-1.367.463-2.06.778s-1.452.573-1.687.573c-1.312 0-5.253 5.104-5.253 6.805 0 2.852 5.277 3.268 7.743.611 2.303-2.481 4.52-3.068 7.166-1.897 4.064 1.797 1.652 4.637-4.463 5.253-6.243.63-10.143 3.021-11.463 7.028-.363 1.1-.849 2.23-1.08 2.512-.306.372-.2.753.389 1.4.445.488.927 1.549 1.071 2.357.276 1.55 1.919 3.299 4.342 4.624 1.798.982 9.459 1.016 10.561.047 1.236-1.087 2.477-1.27 3.604-.531 1.329.871 5.304 1.247 6.486.615l.888-.476-.122-11.674L119.8 235l-1.353-1.949c-2.349-3.384-9.846-5.637-14.647-4.402m228.345.107c-14.329 3.708-14.873 26.928-.713 30.494 2.98.75 10.362.278 11.468-.734.495-.453 1.271-.936 1.724-1.073 1.291-.39 3.282-2.684 3.857-4.443.422-1.293.712-1.6 1.509-1.6.783 0 1.114.331 1.599 1.6.729 1.909 2.199 3.429 4.968 5.139l2.043 1.261h5.866c5.457 0 5.952-.063 7.084-.9.67-.495 1.391-.9 1.603-.9.712 0 3.114-3.18 3.582-4.742 1.833-6.117-2.15-11.021-9.824-12.095-1.711-.239-3.874-.779-4.807-1.199-.932-.42-1.858-.764-2.056-.764-1.39 0-.821-2.677.691-3.254 3.691-1.408 5.232-1.088 7.437 1.547 3.44 4.108 9.379 2.099 7.229-2.446-2.541-5.37-11.488-8.002-17.501-5.147-1.042.495-2.059.9-2.258.9-.509 0-2.702 2.562-3.478 4.062-.477.922-.611 2.055-.508 4.295.229 4.968 2.008 6.379 10.911 8.651 4.007 1.022 5.333 1.53 5.891 2.256.937 1.218.942 1.191-.488 2.561-2.685 2.572-7.207 1.401-9.407-2.436-.718-1.252-5.894-1.385-7.171-.185-.746.701-1.201.832-2.076.598-3.205-.855-6.969-.704-8.064.324-4.141 3.889-9.763 2.922-10.842-1.866-.43-1.907.002-1.99 9.809-1.889 9.768.101 10.041-.004 9.879-3.8-.404-9.465-9.25-16.469-17.957-14.215m-148.345.302c-1.897.496-2.313 2.596-1 5.046.44.821.8 1.726.8 2.01s.35 1.202.777 2.04.901 2.092 1.053 2.785.613 1.888 1.023 2.655c.411.767.747 1.621.747 1.898 0 .278.729 2.26 1.62 4.406 3.216 7.747 2.708 11.702-1.505 11.702-1.628 0-2.843 1.008-3.143 2.609-.653 3.483.812 4.449 6.133 4.04 6.644-.511 7.142-1.288 13.746-21.449 1.117-3.41 2.373-7.043 2.79-8.074.418-1.031.765-2.111.773-2.4.007-.289.361-1.246.786-2.126 1.754-3.631.909-5.204-2.793-5.202-3.55.003-4.927 1.117-5.637 4.562-.254 1.232-.689 2.69-.967 3.24-.279.55-.636 1.63-.794 2.4-.349 1.702-2.21 6-2.598 6-.31 0-2.411-5.973-2.411-6.854 0-.307-.365-1.238-.81-2.069s-.921-2.324-1.058-3.318c-.4-2.919-4.052-4.811-7.532-3.901m80.982.806c.56.292 1.388.532 1.84.534 1.708.005 7.778 5.049 7.778 6.463 0 .191.405 1.201.9 2.243 1.462 3.08 1.21 7.459-.651 11.316-1.218 2.523-3.792 5.98-4.453 5.98-.107 0-1.337.54-2.734 1.2-5.5 2.599-12.605 1.301-16.373-2.991-7.555-8.607-4.703-20.999 5.605-24.349 4.725-1.536 5.804-1.588 8.088-.396m46.296-.317c-.78.938-.895 27.604-.124 28.657.692.945 5.398 1.127 6.946.267l.9-.499V244.43c0-16.025.265-15.086-4.322-15.314-2.191-.108-3.042-.001-3.4.431m-228.519.525c4.709 1.682 7.162 4.816 8.487 10.843.612 2.786.615 3.132.037 4.014l-.632.966-9.126.031c-10.526.036-10.723.102-9.77 3.281 1.364 4.552 7.629 6.101 11.607 2.87 1.642-1.334 1.954-1.433 4.6-1.454l2.838-.023-.118 1.118c-.065.615-.458 1.458-.873 1.873a13 13 0 0 0-1.369 1.692c-2.113 3.225-11.974 4.641-16.24 2.333-10.308-5.577-10.247-21.737.101-26.751 4.144-2.008 6.546-2.19 10.458-.793m29.666-.063c3.229 1.11 4.655 2.182 5.934 4.456l1.09 1.941-.028 10.681c-.016 5.875-.193 10.845-.393 11.045-.666.666-3.611.343-5.066-.555-1.601-.99-3.74-.883-4.991.249-1.44 1.303-7.142 1.286-9.742-.029-6.58-3.329-6.085-12.828.771-14.782 1.32-.376 2.85-.85 3.4-1.052s2.286-.528 3.858-.723c5.486-.681 7.39-3.819 3.799-6.26-2.775-1.885-6.491-1.141-9.296 1.862-2.397 2.566-6.258 1.199-5.015-1.775 1.948-4.661 9.631-7.139 15.679-5.058m228.06.037c4.881 1.782 7.06 4.919 9.167 13.191.089.351-.188 1.082-.616 1.626l-.778.989-9.095.08c-10.919.095-11.423.318-9.292 4.108 2.346 4.175 7.166 5.058 11.212 2.055 5.194-3.856 9.527-1.311 5.153 3.027-3.797 3.765-11.733 4.991-16.436 2.54-6.234-3.249-9.443-12.013-6.816-18.618 1.147-2.887 3.113-6.244 3.656-6.244.164 0 .857-.47 1.539-1.044 2.827-2.378 8.369-3.149 12.306-1.71m27.108-.457c.133.214.998.593 1.924.842 2.922.785 6.663 5.623 5.253 6.794-1.62 1.344-3.966.958-5.812-.957-3.683-3.821-10.358-2.937-10.358 1.371 0 1.381 3.847 3.56 6.286 3.561.707 0 2.057.244 3 .542s2.493.782 3.446 1.075c4.106 1.262 6.086 5.852 4.391 10.183-.779 1.989-2.128 3.8-2.831 3.8-.203 0-.936.405-1.63.9-2.068 1.475-11.304 1.354-13.866-.182-5.512-3.305-7.221-8.303-2.628-7.687 3.029.407 3.364.564 4.25 1.997 1.645 2.662 7.864 3.239 10.022.93 2.709-2.9.084-5.433-6.614-6.383-14.503-2.057-12.889-17.006 1.85-17.146 1.692-.016 3.185.146 3.317.36m-178.597 1.112c1.207.604 1.46.993 1.874 2.876.263 1.198.745 2.818 1.07 3.6.326.783 1.08 3.043 1.675 5.023 1.31 4.357 1.82 5.054 2.95 4.032.715-.648 3.552-8.524 4.226-11.736.755-3.593 2.071-4.617 5.427-4.219 2.478.293 2.691.708 1.614 3.145-.458 1.034-.838 2.172-.846 2.529-.007.357-.361 1.369-.786 2.249s-.779 1.94-.786 2.356-.363 1.496-.79 2.4-1.808 4.884-3.069 8.844c-4.719 14.816-5.859 16.132-13.731 15.865-3.768-.127-3.496-5.265.279-5.265 4.312 0 5.081-4.681 2.027-12.338a183 183 0 0 1-1.934-5.062c-.392-1.1-1-2.54-1.352-3.2-.351-.66-.641-1.56-.643-2s-.363-1.389-.802-2.11-.799-1.555-.799-1.856-.356-1.331-.791-2.29c-1.011-2.228-1.002-2.529.091-3.056 1.365-.658 3.539-.567 5.096.213m128.604.161c.428.404.711 21.076.335 24.448-.276 2.48-.928 3.09-3.302 3.09-3.36 0-3.26.467-3.139-14.638l.106-13.162 1.6-.247c1.818-.28 3.808-.05 4.4.509m-243.091 4.562c-5.326 3.488-3.404 6.242 4.194 6.012 6.134-.187 6.675-.677 4.814-4.367-1.276-2.531-6.265-3.442-9.008-1.645m184.099-.501c-3.571 1.225-5.463 7.069-4.038 12.477 2.751 10.446 14.722 7.981 14.809-3.05.058-7.354-4.692-11.513-10.771-9.427m73.98.377c-1.43.722-1.936 1.277-2.562 2.808-1.221 2.983-.722 3.266 5.736 3.26 5.891-.007 6.517-.243 6.056-2.289-.919-4.073-5.188-5.821-9.23-3.779m-42.131-.111c-5.327 1.7-6.696 13.09-2.016 16.772 4.719 3.712 10.274.35 10.852-6.569.615-7.347-3.37-11.948-8.836-10.203m-210.368.611c2.548.512 4.424 4.208 2.411 4.748-1.177.315-8.051.322-8.867.009-2.478-.951 1.787-5.759 4.567-5.148.33.072 1.18.248 1.889.391m185.642 1.185c4.501 4.067 3.197 13.448-2.157 15.52-4.818 1.864-7.33-.635-8.837-8.795-.443-2.398 2.082-7.035 4.263-7.829 2.138-.777 5.205-.274 6.731 1.104m29.03-1c2.804 1.066 4.394 6.231 3.446 11.194-1.11 5.809-8.013 7.188-10.549 2.107-3.569-7.15.963-15.635 7.103-13.301m45.092 1.144c2.519 2.82 1.533 3.657-4.32 3.666-4.359.006-4.933-.166-4.933-1.478 0-3.567 6.621-5.133 9.253-2.188m-119.164 3.894c-1.426.998-1.359 9.451.082 10.395 1.364.893 10.772.942 12.469.065 4.633-2.396 3.816-9.758-1.191-10.729-3.07-.595-10.374-.422-11.36.269m13.4 1.777c4.193 4.68.989 8.4-7.232 8.4-6.206 0-6.062.129-5.938-5.325.113-4.955-.217-4.722 6.498-4.585l5.418.11zM108 245.04c-.77.335-2.253.792-3.296 1.017-3.148.677-4.541 3.525-3.104 6.344l.816 1.599h6.498l1.943-1.943c4.196-4.196 2.16-9.198-2.857-7.017m3.922 2.491c.197 3.442-2.26 5.669-6.255 5.669-3.102 0-3.667-.403-3.667-2.612 0-2.415 2.115-4.178 5.024-4.186.452-.001 1.172-.271 1.6-.6 1.767-1.361 3.163-.629 3.298 1.729m266.958 2.949c-.499.499-.662 5.4-.232 7.003.45 1.681 6.627 2.349 8.367.905.7-.581.83-6.383.171-7.614-.498-.93-7.425-1.175-8.306-.294m7.501.972c.907.995.781 5.022-.187 5.991-1.334 1.333-4.965 1.384-6.174.087-.863-.927-.808-4.7.085-5.832.891-1.129 5.314-1.302 6.276-.246"/><path fill="#fbfbfb" d="M0 200v200h400V0H0zm150.368-88.182c1.007.969-2.818 14.725-4.778 17.182-.569.713-1.987 4.721-2.83 8-.453 1.76-1.07 3.74-1.372 4.4s-1.625 4.44-2.939 8.4c-1.313 3.96-2.768 8.083-3.232 9.163-.463 1.08-1.471 4.14-2.239 6.8-2.4 8.309-2.334 8.273-15.515 8.518-13.468.251-13.449.263-11.27-7.041 1.204-4.034 1.649-5.36 4.041-12.04.985-2.75 2.164-6.17 2.619-7.6.874-2.743 3.974-11.701 6.185-17.87 3.684-10.28 7.347-14.775 13.814-16.953 5.357-1.804 16.03-2.388 17.516-.959m76.975-.669c2.243.881 2.024 5.058-.544 10.368-.926 1.916-2.026 4.743-2.445 6.283a80 80 0 0 1-1.758 5.5 897 897 0 0 0-2.039 5.6c-.574 1.595-1.274 3.35-1.555 3.9s-.643 1.81-.804 2.8-1.593 5.31-3.182 9.6-3.305 9.33-3.812 11.2c-1.99 7.327-2.42 7.609-11.996 7.891-8.948.263-14.496-.11-15.663-1.055-1.011-.819-.927-1.188 2.151-9.436.657-1.76 1.464-4.28 1.794-5.6.329-1.32 1.659-4.955 2.955-8.077 1.295-3.122 2.355-6.062 2.355-6.533s.54-2.205 1.2-3.854c.66-1.648 1.2-3.231 1.2-3.518s.557-2.299 1.237-4.47c3.526-11.251 8.59-17.373 16.013-19.358.962-.258 1.941-.625 2.175-.816.234-.192 2.664-.405 5.4-.475s5.335-.152 5.775-.184a4.2 4.2 0 0 1 1.543.234m67.907 1.477c1.441.745 1.24 2.248-1.269 9.472-2.721 7.836-6.298 11.792-12.437 13.758l-3.344 1.071-18.8-.03c-26.143-.042-23.681.059-24.364-.997-.653-1.01-.181-3.575 1.308-7.1 1.292-3.059 2.37-6.039 3.665-10.123.782-2.466 1.663-4.393 2.374-5.188l1.13-1.266 6.144-.25c11.186-.457 44.366.018 45.593.653m-111.683 12.827c1.943.389 2.271 1.503 1.286 4.377-2.171 6.341-4.443 12.49-5.014 13.57-.349.66-.635 1.519-.637 1.909-.001.389-.611 2.279-1.356 4.2a109 109 0 0 0-2.417 7.091c-.585 1.98-1.672 4.86-2.416 6.4-.745 1.54-1.636 4.09-1.981 5.667-1.321 6.041-.786 5.843-15.232 5.649-12.871-.173-13.475-.337-11.831-3.215.408-.716.859-1.965 1-2.777.285-1.627 2.636-8.406 3.79-10.924.79-1.726 2.784-7.72 3.859-11.6.365-1.32.888-2.76 1.162-3.2s.716-1.462.981-2.271c1.793-5.472 5.665-10.443 9.432-12.109 6.73-2.976 13.496-3.942 19.374-2.767m113.249 24.555c.939.503 1.002 1.773.184 3.73-.33.79-.6 1.825-.6 2.299 0 .475-.469 1.965-1.042 3.313a576 576 0 0 0-1.7 4.04c-1.017 2.458-3.728 5.885-5.686 7.19-.975.649-2.169 1.527-2.654 1.952-1.863 1.633-5.827 1.851-33.792 1.86-14.969.005-26.689-.15-27.238-.359-1.676-.637-2.263-1.492-1.875-2.729.191-.607.907-2.904 1.591-5.104s1.844-5.62 2.579-7.6 1.546-4.632 1.803-5.893c.541-2.65.727-2.82 3.414-3.106 3.864-.411 64.193-.033 65.016.407M23.7 219.234c.605.648 1.102 1.491 1.105 1.872.004.695.831 4.072 2.373 9.694.453 1.65 1.125 4.35 1.495 6 1.153 5.149 2.616 6.432 3.09 2.709.253-1.99.831-4.622 2.659-12.109.43-1.76.956-4.356 1.169-5.769.533-3.54 1.794-4.279 6.449-3.781 2.729.292 3.176.894 4.123 5.55 2.988 14.692 4.724 20.775 5.239 18.358.136-.637.495-1.726.798-2.42.303-.695.755-2.389 1.005-3.766s.702-3.149 1.006-3.938c.303-.789.744-2.424.98-3.634.564-2.892 2.155-8.88 2.508-9.444.418-.665 4.547-1.028 6.308-.554 1.945.524 2.279 1.474 1.46 4.156a603 603 0 0 0-1.645 5.542c-.562 1.925-1.461 4.985-1.998 6.8s-1.44 5.1-2.008 7.3c-.567 2.2-1.295 4.9-1.617 6s-.782 2.789-1.022 3.753-.599 2.044-.797 2.4-.552 1.411-.786 2.344c-.583 2.338-2.035 3.073-5.512 2.794-3.674-.295-3.726-.382-5.714-9.491-.456-2.09-.996-4.52-1.2-5.4a95 95 0 0 1-.786-3.947c-.228-1.291-.827-3.159-1.331-4.151l-.917-1.804-.47 2.846c-.258 1.565-.72 3.613-1.027 4.551s-.682 2.605-.835 3.705-.508 2.551-.788 3.224c-.28.674-.737 2.826-1.015 4.784-.694 4.889-1.555 5.792-5.524 5.792-3.737 0-4.192-.43-5.511-5.2-2.272-8.214-2.906-10.382-3.152-10.78-.326-.527-1.284-3.895-2.024-7.116-.316-1.373-.816-3.083-1.112-3.8-.295-.717-.775-2.474-1.066-3.904s-.697-2.815-.9-3.078c-.356-.459-1.51-5.376-1.51-6.435 0-1.771 6.782-1.495 8.5.347m107.896-.578c.511.484.596 3.286.6 19.789l.004 19.225-.944.765c-1.18.955-4.765 1.04-6.48.152l-1.185-.612.017-18.794c.017-19.42.106-20.528 1.686-21.171 1.225-.498 5.562-.053 6.302.646m30.343-.059c.403.381.527 1.78.488 5.51-.031 3.009.13 5.4.405 6.003l.456 1.002 2.022-1.256c4.024-2.5 10.926-1.291 13.135 2.301 2.455 3.991 2.419 3.759 2.376 15.127-.047 12.403.206 11.716-4.319 11.716-4.178 0-4.089.229-4.096-10.504-.006-8.018-.058-8.607-.906-10.29-1.521-3.016-5.154-3.064-7.538-.1L162.6 239.8l-.2 9.189-.2 9.189-1 .505c-2.112 1.067-6.393.436-7.039-1.037-.445-1.014-.54-36.786-.102-38.044.668-1.914 6.178-2.617 7.88-1.005m74.571.398c3.234 1.31 6.047 4.17 6.44 6.546.733 4.436-.172 7.742-2.739 9.996l-1.335 1.171 1.735 1.703c7.627 7.486 4.378 17.514-6.611 20.402-2.824.742-21 .479-21.651-.313-1.03-1.255-.806-38.932.239-40.087 1.319-1.457 20.01-1.003 23.922.582m68.844-.943c1.689.769 1.819 1.845 1.684 13.948-.069 6.27-.151 14.761-.182 18.869l-.056 7.469-1.458.481c-1.82.601-5.149.285-6.764-.643-1.199-.688-1.256-.681-3.035.361-6.95 4.073-16.061-1.314-17.501-10.348-.238-1.495-.388-1.79-.602-1.189-3.144 8.823-7.829 12.4-16.24 12.4-5.856 0-7.594-.627-10.58-3.82-9.625-10.29-3.102-27.142 10.518-27.175 7.586-.018 13.087 4.375 16.271 12.995.218.589.434.084.821-1.917.851-4.398 3.224-7.779 6.74-9.602 3.313-1.718 7.395-1.79 10.428-.186 2.595 1.372 2.678 1.214 2.752-5.285.062-5.381.312-6.207 1.979-6.532 1.782-.346 4.264-.264 5.225.174m12.75.804c1.19 1.598 1.15 5.009-.071 5.998-1.323 1.071-6.019 1.067-6.99-.007-1.154-1.275-.757-6.068.557-6.733 1.812-.917 5.588-.486 6.504.742m-173.004 1.94c1.29.786 1.3.817 1.3 3.949 0 3.398.184 3.751 2.2 4.229 3.995.949 3.694 6.626-.351 6.626-1.705 0-1.849.593-1.843 7.58.007 7.571.209 8.28 2.594 9.086 2.263.764 2.847 1.614 2.667 3.876-.206 2.595-1.467 3.266-5.443 2.896-7.348-.683-8.224-2.216-8.224-14.404 0-8.885.103-8.484-2.505-9.787-2.385-1.192-2.036-4.1.69-5.737l1.815-1.09v-3.028c0-4.722 3.167-6.594 7.1-4.196m77.5 4.667c-1.712.437-2.729 6.648-1.32 8.057 1.407 1.407 11.071.337 12.175-1.348 3.012-4.597-3.462-8.598-10.855-6.709m-138.4 4.291c4.552 2.462 6.292 4.9 7.864 11.015 1.515 5.893 1.28 6.031-10.25 6.031-9.124 0-9.884.09-9.55 1.133 1.636 5.113 6.319 6.563 10.507 3.252 3.441-2.72 9.686-2.174 8.841.773-.61 2.128-2.924 4.658-5.552 6.074-3.23 1.739-11.626 2.087-13.878.575a23 23 0 0 0-2.582-1.45c-7.239-3.393-8.287-17.913-1.77-24.534 1.195-1.215 2.667-2.323 3.271-2.463s1.467-.483 1.916-.762c2.275-1.413 8.267-1.222 11.183.356m30.247.141c2.097.956 2.928 1.612 4 3.156L119.8 235l.122 11.674.122 11.674-.888.476c-1.182.632-5.157.256-6.486-.615-1.127-.739-2.368-.556-3.604.531-1.102.969-8.763.935-10.561-.047-2.423-1.325-4.066-3.074-4.342-4.624-.144-.808-.626-1.869-1.071-2.357-.589-.647-.695-1.028-.389-1.4.231-.282.717-1.412 1.08-2.512 1.32-4.007 5.22-6.398 11.463-7.028 6.115-.616 8.527-3.456 4.463-5.253-2.646-1.171-4.863-.584-7.166 1.897-2.466 2.657-7.743 2.241-7.743-.611 0-1.701 3.941-6.805 5.253-6.805.235 0 .993-.258 1.687-.573 3.254-1.479 8.891-1.271 12.707.468m227.369-.167c4.691 2.428 8.054 7.802 8.286 13.243.162 3.796-.111 3.901-9.879 3.8-9.807-.101-10.239-.018-9.809 1.889 1.079 4.788 6.701 5.755 10.842 1.866 1.095-1.028 4.859-1.179 8.064-.324.875.234 1.33.103 2.076-.598 1.277-1.2 6.453-1.067 7.171.185 2.2 3.837 6.722 5.008 9.407 2.436 1.43-1.37 1.425-1.343.488-2.561-.558-.726-1.884-1.234-5.891-2.256-8.903-2.272-10.682-3.683-10.911-8.651-.103-2.24.031-3.373.508-4.295.776-1.5 2.969-4.062 3.478-4.062.199 0 1.216-.405 2.258-.9 6.013-2.855 14.96-.223 17.501 5.147 2.15 4.545-3.789 6.554-7.229 2.446-2.205-2.635-3.746-2.955-7.437-1.547-1.512.577-2.081 3.254-.691 3.254.198 0 1.124.344 2.056.764.933.42 3.096.96 4.807 1.199 7.674 1.074 11.657 5.978 9.824 12.095-.468 1.562-2.87 4.742-3.582 4.742-.212 0-.933.405-1.603.9-1.132.837-1.627.9-7.084.9H358.6l-2.043-1.261c-2.769-1.71-4.239-3.23-4.968-5.139-.485-1.269-.816-1.6-1.599-1.6-.797 0-1.087.307-1.509 1.6-.575 1.759-2.566 4.053-3.857 4.443-.453.137-1.229.62-1.724 1.073-1.106 1.012-8.488 1.484-11.468.734-10.012-2.521-13.76-16.803-6.803-25.924 3.339-4.377 12.126-6.217 17.187-3.598m-152.029.435c1.015.774 1.352 1.384 1.545 2.796.137.994.612 2.487 1.058 3.318.445.831.81 1.762.81 2.069 0 .881 2.101 6.854 2.411 6.854.388 0 2.249-4.298 2.598-6 .158-.77.515-1.85.794-2.4.278-.55.713-2.008.967-3.24.71-3.445 2.087-4.559 5.637-4.562 3.702-.002 4.547 1.571 2.793 5.202-.425.88-.779 1.837-.786 2.126s-.355 1.369-.773 2.4c-.417 1.031-1.673 4.664-2.79 8.074-6.604 20.161-7.102 20.938-13.746 21.449-5.321.409-6.786-.557-6.133-4.04.3-1.601 1.515-2.609 3.143-2.609 4.213 0 4.721-3.955 1.505-11.702-.891-2.146-1.62-4.128-1.62-4.406s-.336-1.131-.747-1.898c-.41-.767-.871-1.961-1.023-2.655s-.626-1.947-1.053-2.785-.777-1.756-.777-2.04-.36-1.189-.8-2.01c-1.313-2.45-.897-4.55 1-5.046 1.691-.442 4.683.11 5.987 1.105m128.313-.088c.637.74.7 2.035.7 14.355v13.542l-.9.499c-1.548.86-6.254.678-6.946-.267-.771-1.053-.656-27.719.124-28.657.774-.932 6.112-.53 7.022.528m-241.858 5.544c-2.604.77-4.587 4.256-2.809 4.938.816.313 7.69.306 8.867-.009 2.013-.54.137-4.236-2.411-4.748-.709-.143-1.559-.319-1.889-.391s-1.121.022-1.758.21m182.558.262c-2.181.794-4.706 5.431-4.263 7.829 1.265 6.848 2.16 8.347 5.392 9.037 4.642.99 8.087-2.488 8.139-8.218.063-6.792-3.986-10.569-9.268-8.648m31.605.242c-3.962 1.355-5.473 8.104-2.947 13.163 2.536 5.081 9.439 3.702 10.549-2.107 1.471-7.704-2.123-12.931-7.602-11.056m41.401.791c-2.878 2.878-1.959 3.889 3.527 3.881 4.665-.007 5.467-.218 5.467-1.435 0-3.474-6.263-5.177-8.994-2.446m-110.501 4.596c-.73.488-.851 8.191-.142 9.045.971 1.17 10.015.921 11.997-.33 2.752-1.737 3.055-4.829.729-7.425l-1.254-1.4-5.418-.11c-2.979-.061-5.64.038-5.912.22m-112.681 4.292c-.428.329-1.148.599-1.6.6-2.909.008-5.024 1.771-5.024 4.186 0 3.41 5.18 3.937 8.275.843 3.169-3.169 1.692-8.204-1.651-5.629m278.562 4.972c.659 1.231.529 7.033-.171 7.614-1.74 1.444-7.917.776-8.367-.905-.43-1.603-.267-6.504.232-7.003.881-.881 7.808-.636 8.306.294"/><path fill="#13191a" d="M16.534 219.029c-.283.736.28 4.373.986 6.371.456 1.288 1.442 4.621 4.083 13.8 5.693 19.782 5.416 19.2 9.122 19.2 3.028 0 3.797-.936 4.465-5.429.26-1.744.804-4.341 1.209-5.771.957-3.375 1.923-7.47 2.623-11.12 1.058-5.514 2.437-4.458 4.075 3.12 1.271 5.882 2.74 12.602 3.322 15.2 1.093 4.881 8.781 5.765 8.781 1.01 0-.527.204-1.465.452-2.084.42-1.044.799-2.413 2.584-9.326 1.233-4.773 2.234-8.181 2.998-10.2.416-1.1.931-2.81 1.145-3.8.719-3.326 1.718-6.99 2.261-8.29.902-2.162-.566-3.505-3.405-3.115-2.746.378-3.336 1.03-3.996 4.413-.299 1.536-.69 2.979-.87 3.207-.18.229-.523 1.647-.764 3.151-.24 1.504-.679 3.316-.976 4.025s-.663 2.082-.816 3.05c-.293 1.859-1.934 7.131-2.576 8.28-.698 1.245-2.316-4.094-4.646-15.321-2.122-10.228-2.313-10.623-5.261-10.88-3.65-.32-4.607.628-5.381 5.327-.358 2.174-.846 4.493-1.083 5.153-.238.66-.733 2.73-1.099 4.6-2.052 10.482-2.164 10.83-3.38 10.512-1.013-.264-1.417-1.018-1.776-3.312-.155-.99-.918-4.23-1.696-7.2s-1.546-6.03-1.707-6.8c-.557-2.659-2.074-7.157-2.54-7.529-1.008-.805-5.845-.996-6.134-.242m108.878.296c-.792 1.209-.969 36.861-.19 38.316.697 1.303 4.549 1.08 5.464-.316 1.02-1.557 1.107-36.598.093-37.85-1.082-1.336-4.527-1.432-5.367-.15m30.008-.011c-.808 1.232-.896 36.277-.095 37.889.427.861.804 1.013 2.763 1.116 3.367.177 3.407.065 3.597-10.119.204-10.968.776-12.324 5.426-12.857 2.498-.286 3.836.291 5.097 2.198l1.042 1.573-.033 8.596c-.041 10.637-.025 10.69 3.145 10.69 3.768 0 3.638.409 3.638-11.445 0-9.561-.052-10.29-.843-11.871-1.784-3.563-5.408-5.884-9.186-5.884-1.56 0-2.162.265-5.286 2.329-2.391 1.579-3.055.043-3.082-7.129-.008-2.31-.147-4.398-.309-4.64-1.061-1.589-4.933-1.883-5.874-.446m59.72-.622c-1.589.127-1.919.305-2.268 1.228-.577 1.527-.424 37.488.162 38.074.838.838 19.913.299 22.927-.649 3.714-1.168 6.055-3.495 7.251-7.209l.905-2.809-.858-2.823c-.73-2.405-1.213-3.181-3.256-5.237-2.66-2.676-2.719-3.159-.551-4.499 2.153-1.331 3.058-3.519 2.884-6.974-.393-7.766-8.77-10.57-27.196-9.102m84.489.762c-.739.94-.829 1.601-.829 6.111 0 3.998-.135 5.249-.643 5.975l-.643.918-.957-.898c-5.414-5.087-15.054-1.058-17.382 7.264-1.354 4.839-.075 12.84 2.551 15.961.549.652 1.06 1.327 1.137 1.5.888 2.012 10.195 3.532 11.559 1.889 1.557-1.876 4.354-2.281 5.341-.774 1.063 1.621 5.318 1.424 5.944-.276.137-.372.281-8.822.32-18.778l.071-18.103-1.071-.921c-1.577-1.357-4.279-1.291-5.398.132m12.271-.622c-1.173.683-1.008 5.392.2 5.716 4.142 1.11 6.153-.031 5.786-3.282-.295-2.619-3.459-3.906-5.986-2.434m-172.22 2.848c-.274.274-.483 1.603-.486 3.1-.007 3.029-.573 4.407-2.113 5.145-2.587 1.241-2.827 3.321-.494 4.295 2.535 1.059 2.647 1.525 2.567 10.629-.091 10.451.072 11.07 3.288 12.506 3.494 1.558 6.903 1.499 7.748-.135 1.195-2.312.661-3.148-2.667-4.169-1.606-.493-1.872-1.748-1.972-9.311-.107-8.183.189-9.34 2.396-9.34 3.245 0 3.21-3.499-.042-4.183-1.602-.336-2.25-1.647-2.417-4.894-.082-1.58-.382-3.154-.667-3.498-.63-.759-4.42-.866-5.141-.145m90.789 3.115c4.955.018 6.667 7.242 2.185 9.221-2.8 1.236-11.309 1.25-12.305.02-.919-1.134-1.119-8.149-.249-8.712.555-.359 6.841-.878 8.1-.668.44.073 1.461.136 2.269.139m30.131 4.293c-6.593 1.343-10.465 4.15-12.537 9.086-5.256 12.521 7.333 25.127 19.399 19.426 1.397-.66 2.627-1.2 2.734-1.2.661 0 3.235-3.457 4.453-5.98 1.861-3.857 2.113-8.236.651-11.316-.495-1.042-.9-2.052-.9-2.243 0-1.414-6.07-6.458-7.778-6.463-.452-.002-1.28-.242-1.84-.534-1.244-.649-3.108-.995-4.182-.776m-185.4.37c-12.943 4.213-14.943 21.805-3.2 28.158 4.266 2.308 14.127.892 16.24-2.333.337-.515.953-1.276 1.369-1.692.415-.415.808-1.258.873-1.873l.118-1.118-2.838.023c-2.646.021-2.958.12-4.6 1.454-3.978 3.231-10.243 1.682-11.607-2.87-.953-3.179-.756-3.245 9.77-3.281l9.126-.031.632-.966c1.399-2.135-1.637-10.546-4.648-12.875-2.773-2.146-8.531-3.476-11.235-2.596m30 .127c-4.724.731-7.368 2.406-8.654 5.482-1.243 2.974 2.618 4.341 5.015 1.775 2.805-3.003 6.521-3.747 9.296-1.862 3.591 2.441 1.687 5.579-3.799 6.26-1.572.195-3.308.521-3.858.723s-2.08.676-3.4 1.052c-6.856 1.954-7.351 11.453-.771 14.782 2.6 1.315 8.302 1.332 9.742.029 1.251-1.132 3.39-1.239 4.991-.249 1.455.898 4.4 1.221 5.066.555.2-.2.377-5.17.393-11.045l.028-10.681-1.09-1.941c-2.228-3.963-7.077-5.789-12.959-4.88m226.31.407c-1.259.396-2.848 1.19-3.531 1.764-.682.574-1.375 1.044-1.539 1.044-.543 0-2.509 3.357-3.656 6.244-2.627 6.605.582 15.369 6.816 18.618 4.703 2.451 12.639 1.225 16.436-2.54 4.374-4.338.041-6.883-5.153-3.027-4.046 3.003-8.866 2.12-11.212-2.055-2.131-3.79-1.627-4.013 9.292-4.108l9.095-.08.778-.989c.428-.544.705-1.275.616-1.626-2.988-11.732-8.889-16.089-17.942-13.245m27.421.002c-10.616 3.776-8.415 14.72 3.295 16.381 6.698.95 9.323 3.483 6.614 6.383-2.158 2.309-8.377 1.732-10.022-.93-.886-1.433-1.221-1.59-4.25-1.997-4.593-.616-2.884 4.382 2.628 7.687 2.562 1.536 11.798 1.657 13.866.182.694-.495 1.427-.9 1.63-.9.703 0 2.052-1.811 2.831-3.8 1.695-4.331-.285-8.921-4.391-10.183-.953-.293-2.503-.776-3.446-1.075s-2.293-.542-3-.542c-2.439-.001-6.286-2.18-6.286-3.561 0-4.308 6.675-5.192 10.358-1.371 1.846 1.915 4.192 2.301 5.812.957 1.41-1.171-2.331-6.009-5.253-6.794-.926-.249-1.791-.628-1.924-.842-.414-.67-6.22-.392-8.462.405m-175.231.494c-1.093.527-1.102.828-.091 3.056.435.959.791 1.989.791 2.29s.359 1.136.799 1.856c.439.721.8 1.67.802 2.11s.292 1.34.643 2 .96 2.1 1.352 3.2 1.262 3.378 1.934 5.062c3.054 7.657 2.285 12.338-2.027 12.338-3.775 0-4.047 5.138-.279 5.265 7.872.267 9.012-1.049 13.731-15.865 1.261-3.96 2.642-7.94 3.069-8.844s.782-1.984.79-2.4c.007-.416.361-1.476.786-2.356s.779-1.892.786-2.249.388-1.495.846-2.529c1.077-2.437.864-2.852-1.614-3.145-3.356-.398-4.672.626-5.427 4.219-.674 3.212-3.511 11.088-4.226 11.736-1.13 1.022-1.64.325-2.95-4.032-.595-1.98-1.349-4.24-1.675-5.023-.325-.782-.807-2.402-1.07-3.6-.678-3.084-3.962-4.54-6.97-3.089m129.3-.135-1.6.247-.106 13.162c-.121 15.105-.221 14.638 3.139 14.638 2.374 0 3.026-.61 3.302-3.09.376-3.372.093-24.044-.335-24.448-.592-.559-2.582-.789-4.4-.509m-231.927 4.824c2.312 1.05 4.012 4.556 2.726 5.624-.852.707-9.69.931-10.999.279-4.987-2.486 3.097-8.253 8.273-5.903m183.218-.355c2.763.963 4.923 5.172 4.888 9.528-.087 11.031-12.058 13.496-14.809 3.05-2.216-8.412 2.979-14.998 9.921-12.578m74.389.417c1.826.883 2.457 1.709 2.938 3.84.461 2.046-.165 2.282-6.056 2.289-6.458.006-6.957-.277-5.736-3.26 1.363-3.333 5.277-4.601 8.854-2.869m-41.821 1.49c3.399 3.617 2.977 13.024-.685 15.287-5.861 3.623-10.673.045-10.609-7.889.065-8.131 6.59-12.405 11.294-7.398m-65.01 4.025c5.007.971 5.824 8.333 1.191 10.729-1.697.877-11.105.828-12.469-.065-1.441-.944-1.508-9.397-.082-10.395.986-.691 8.29-.864 11.36-.269M112.32 244.88c1.351 1.351.58 5.134-1.463 7.177L108.914 254h-6.498l-.816-1.599c-1.437-2.819-.044-5.667 3.104-6.344 1.043-.225 2.526-.682 3.296-1.017 1.699-.738 3.669-.811 4.32-.16m269.43 5.992c-2.269.59-3.384 4.882-1.73 6.658 2.611 2.802 7.281.512 6.905-3.387-.303-3.133-1.879-4.129-5.175-3.271"/></g></svg>